<svg xmlns="http://www.w3.org/2000/svg" viewBox="0 0 302.02 44"><defs><style>.cls-1{fill:#303030;}</style></defs><title>Asset 1</title><g id="Layer_2" data-name="Layer 2"><g id="Layer_1-2" data-name="Layer 1"><path class="cls-1" d="M17.86,34,10.72,19.21,2.82,33.94,0,33.67,9.22,16.34,3,3.46,5.69,3.1l15,30.57Z"/><path class="cls-1" d="M41.38,26.44a8.34,8.34,0,0,1-2,4.59,9.08,9.08,0,0,1-3.77,2.51A10.39,10.39,0,0,1,31,34a10,10,0,0,1-7.81-5.21,11.39,11.39,0,0,1-1.32-5.69,11.71,11.71,0,0,1,.88-4.63,10.93,10.93,0,0,1,2.38-3.55,11.16,11.16,0,0,1,3.44-2.32,11,11,0,0,1,4-.9,11.68,11.68,0,0,1,8.23,3.11V18.1a22,22,0,0,0-3.66-2.49A8.72,8.72,0,0,0,33,14.53a8.14,8.14,0,0,0-2.82.49,8.12,8.12,0,0,0-4.19,3.42,9.11,9.11,0,0,0-1.1,2.67ZM37.58,27.9,24.7,23.44a9,9,0,0,0,.93,3.82,8.13,8.13,0,0,0,2.1,2.62,7.08,7.08,0,0,0,2.76,1.39,7.26,7.26,0,0,0,2.91.15,5.39,5.39,0,0,0,2.54-1.1A5.08,5.08,0,0,0,37.58,27.9Z"/><path class="cls-1" d="M56.06,15.28a14.05,14.05,0,0,0-1.41-.53,4.87,4.87,0,0,0-1.46-.22,5.93,5.93,0,0,0-1.81.22,2.12,2.12,0,0,0-1,.71,2.59,2.59,0,0,0-.49,1.24,12.25,12.25,0,0,0-.11,1.76V44q-.66-.22-1.35-.4t-1.35-.4q0-6.75,0-13.37t0-13.37h0a5.2,5.2,0,0,1,1.17-2.73,5.13,5.13,0,0,1,2.16-1.46,6.62,6.62,0,0,1,2.71-.33,10.38,10.38,0,0,1,2.87.64Z"/><path class="cls-1" d="M70.22,15.28a14.05,14.05,0,0,0-1.41-.53,4.87,4.87,0,0,0-1.46-.22,5.93,5.93,0,0,0-1.81.22,2.12,2.12,0,0,0-1,.71A2.59,2.59,0,0,0,64,16.69a12.25,12.25,0,0,0-.11,1.76V44q-.66-.22-1.35-.4t-1.35-.4q0-6.75,0-13.37t0-13.37h0a5.2,5.2,0,0,1,1.17-2.73,5.13,5.13,0,0,1,2.16-1.46,6.62,6.62,0,0,1,2.71-.33,10.38,10.38,0,0,1,2.87.64Z"/><path class="cls-1" d="M94,27.3a11.1,11.1,0,0,1-2.32,3.57,10.94,10.94,0,0,1-3.48,2.4A10.86,10.86,0,0,1,76,30.87a11.57,11.57,0,0,1-2.29-12.24A11.14,11.14,0,0,1,76,15.08a11,11,0,0,1,3.46-2.4,11,11,0,0,1,8.62,0,11.21,11.21,0,0,1,3.51,2.4A11,11,0,0,1,94,18.63,11.22,11.22,0,0,1,94.79,23,11.38,11.38,0,0,1,94,27.3Zm-2-4.34a8.6,8.6,0,0,0-.62-3.22A8.75,8.75,0,0,0,89.61,17,8,8,0,0,0,87,15.17a7.67,7.67,0,0,0-3.22-.68,7.53,7.53,0,0,0-3.2.68A8.31,8.31,0,0,0,78,17a8.7,8.7,0,0,0-1.72,9.15A8.7,8.7,0,0,0,78,28.89a8.26,8.26,0,0,0,2.58,1.87,7.46,7.46,0,0,0,3.22.71A7.67,7.67,0,0,0,87,30.78a8.23,8.23,0,0,0,2.6-1.85,8.54,8.54,0,0,0,1.72-2.71A8.71,8.71,0,0,0,92,23Z"/><path class="cls-1" d="M129,33.92a3.67,3.67,0,0,1-1.3.07l-7.1-16.28L113.54,34h-.71l-7-16.28L98.9,34l-1.35-.18a10.19,10.19,0,0,0-1.39-.09l9.4-21.92h.71l6.88,16.54,7.1-16.54H121l9.4,21.88Q129.82,33.76,129,33.92Z"/><path class="cls-1" d="M153,12.93a10.86,10.86,0,0,0-3.75-2.42,11.14,11.14,0,0,0-4.38-.74,11.73,11.73,0,0,0-4.5,1.1,12,12,0,0,0-2.12,1.25v-11A1.15,1.15,0,0,0,136.76.06q-.62.21-1.27.37l-1.38.35a1.15,1.15,0,0,0-.87,1.12V26.25a4.28,4.28,0,0,0,.39,1.59,12.16,12.16,0,0,0,.57,1.24,9.5,9.5,0,0,0,3.44,3.76,11.48,11.48,0,0,0,4.63,1.64,12.59,12.59,0,0,0,1.58.1,13.35,13.35,0,0,0,3.43-.46,13.06,13.06,0,0,0,4.59-2.25,12.21,12.21,0,0,0,3.39-4.09,12.47,12.47,0,0,0,1.32-5.85,13,13,0,0,0-1-5.13A12,12,0,0,0,153,12.93Zm-1.52,8.75a1.15,1.15,0,0,0,0,.3,7.33,7.33,0,0,1-.75,3.43,7.51,7.51,0,0,1-2,2.41A7.39,7.39,0,0,1,146,29.18a8.31,8.31,0,0,1-3,.27,6.3,6.3,0,0,1-2.61-.84,4.93,4.93,0,0,1-1.85-1.92,5.72,5.72,0,0,1-.28-.55.59.59,0,0,1-.06-.24v-6a1.09,1.09,0,0,1,.12-.36l.35-.79a6.79,6.79,0,0,1,2-2.59,7,7,0,0,1,2.69-1.29,6.38,6.38,0,0,1,1.41-.16,6.57,6.57,0,0,1,4,1.38,6.83,6.83,0,0,1,1.9,2.38A7.68,7.68,0,0,1,151.5,21.67Z"/><path class="cls-1" d="M170.67,28.91a1.15,1.15,0,0,0-1.1-.1,12.46,12.46,0,0,1-1.29.49,3.7,3.7,0,0,1-1.11.17,4.72,4.72,0,0,1-1.45-.16,1,1,0,0,1-.49-.32,1.48,1.48,0,0,1-.26-.7,11.15,11.15,0,0,1-.1-1.6V1.15A1.15,1.15,0,0,0,163.36.06q-.62.21-1.27.37t-1.42.42a1.15,1.15,0,0,0-.79,1.09q0,6.75,0,13.36c0,4.4,0,8.91,0,13.39a1.08,1.08,0,0,0,.11.46,6.18,6.18,0,0,0,1.4,3A6.11,6.11,0,0,0,164,33.94a7.83,7.83,0,0,0,2.48.39l.69,0a12.67,12.67,0,0,0,3.15-.65,1.15,1.15,0,0,0,.78-1.07l0-2.69A1.15,1.15,0,0,0,170.67,28.91Z"/><path class="cls-1" d="M190.9,22.19q0-2.12,0-4.14a12.12,12.12,0,0,0-.66-4A6.17,6.17,0,0,0,187.76,11a8.77,8.77,0,0,0-4.89-1.14,12,12,0,0,0-3.71.59,20.82,20.82,0,0,0-3.32,1.4,1.15,1.15,0,0,0-.6.83l-.53,3.13a1.15,1.15,0,0,0,1.79,1.14,16,16,0,0,1,3-1.58,8,8,0,0,1,3-.64,4.14,4.14,0,0,1,2.49.71,2.14,2.14,0,0,1,.82,2v1.05a12.76,12.76,0,0,0-5.41-.24,9.42,9.42,0,0,0-4.76,2.33,8.45,8.45,0,0,0-2.22,8.67,7.77,7.77,0,0,0,2.73,3.75,8.48,8.48,0,0,0,5.29,1.56,8.08,8.08,0,0,0,3.55-.82,9.94,9.94,0,0,0,1.05-.59l0,.4a1.15,1.15,0,0,0,1.53,1l2.65-.93a1.15,1.15,0,0,0,.77-1.15c-.09-1.7-.13-3.4-.13-5.06Zm-10,7.37a3.83,3.83,0,0,1-2.1-1,2.38,2.38,0,0,1-.77-1.9,3.32,3.32,0,0,1,.4-1.68,4.09,4.09,0,0,1,1.12-1.28,5.13,5.13,0,0,1,1.64-.81,6.91,6.91,0,0,1,1.95-.28,3.07,3.07,0,0,1,.77.13,4.53,4.53,0,0,1,1,.4,3.54,3.54,0,0,1,.78.58s.11.11.11.16q0,.74,0,1.51t0,1.5l0,.06a2.44,2.44,0,0,1-.17.32,4.22,4.22,0,0,1-2.05,1.87A4.85,4.85,0,0,1,180.93,29.57Z"/><path class="cls-1" d="M212.66,28.41a1.15,1.15,0,0,0-1.74-.55,9,9,0,0,1-2.48,1.19,9.36,9.36,0,0,1-2.73.41,6.69,6.69,0,0,1-3.89-1.05,6.82,6.82,0,0,1-2.33-2.69,8.5,8.5,0,0,1,0-7.16,6.71,6.71,0,0,1,2.37-2.68,6.9,6.9,0,0,1,3.94-1.06,7.76,7.76,0,0,1,2.59.44,12.89,12.89,0,0,1,2.49,1.19,1.15,1.15,0,0,0,1.69-.58l1-2.6a1.15,1.15,0,0,0-.53-1.42,19.34,19.34,0,0,0-3.45-1.45,12.78,12.78,0,0,0-3.81-.58,11.65,11.65,0,0,0-6.69,1.85A12.11,12.11,0,0,0,195,16.27a13.4,13.4,0,0,0-1.42,5.88,12.9,12.9,0,0,0,1.29,5.9,11.69,11.69,0,0,0,4.05,4.6,11.92,11.92,0,0,0,6.8,1.85,14,14,0,0,0,3.87-.57,12.32,12.32,0,0,0,3.57-1.66,1.15,1.15,0,0,0,.43-1.35Z"/><path class="cls-1" d="M224.63,21.76l9.12-9.12a1.15,1.15,0,0,0-.52-1.93L230.41,10a1.15,1.15,0,0,0-1.11.29l-8.36,8.25V1.42A1.15,1.15,0,0,0,219.59.28l-2.74.49a1.15,1.15,0,0,0-1,1.13V33.09a1.15,1.15,0,0,0,1.15,1.15l.2,0,2.74-.49a1.15,1.15,0,0,0,1-1.13V25.12l9.86,8.79a1.15,1.15,0,0,0,1.2.21l2.51-1a1.15,1.15,0,0,0,.35-1.92Z"/><path class="cls-1" d="M251.36,1.56a1.15,1.15,0,0,0-.62-.86,5.56,5.56,0,0,0-2.5-.61,9.59,9.59,0,0,0-6.49,2.16,8.11,8.11,0,0,0-2.56,6.45v1.67h-1.8a1.15,1.15,0,0,0-1.14,1l-.4,2.51A1.15,1.15,0,0,0,237,15.19h2.2v17.9a1.15,1.15,0,0,0,1.15,1.15l.2,0,2.74-.49a1.15,1.15,0,0,0,1-1.13V15.14h3.92A1.15,1.15,0,0,0,249.3,14V11.47a1.15,1.15,0,0,0-1.15-1.15h-3.92q0-.87,0-1.7a5.24,5.24,0,0,1,.37-2,2.41,2.41,0,0,1,1-1.13,4.47,4.47,0,0,1,2.33-.44,5.83,5.83,0,0,1,1.14.11,10.11,10.11,0,0,1,1.19.32,1.14,1.14,0,0,0,.36.06h0a1.15,1.15,0,0,0,1.1-1.5Z"/><path class="cls-1" d="M258.65,3.68a3,3,0,0,0-3.74,0A2.58,2.58,0,0,0,254,5.78a2.6,2.6,0,0,0,.92,2.1,2.89,2.89,0,0,0,1.86.68,3,3,0,0,0,1.88-.64,2.58,2.58,0,0,0,.95-2.14A2.61,2.61,0,0,0,258.65,3.68Z"/><path class="cls-1" d="M258.93,10.05a1.15,1.15,0,0,0-1-.16l-1.34.44-1.35.44a1.15,1.15,0,0,0-.79,1.09V33.09a1.15,1.15,0,0,0,1.15,1.15l.2,0,2.69-.49a1.15,1.15,0,0,0,.95-1.13V11A1.15,1.15,0,0,0,258.93,10.05Z"/><path class="cls-1" d="M276.11,21.19a14.57,14.57,0,0,0-2.87-1.25c-.9-.28-1.76-.59-2.55-.91a6.65,6.65,0,0,1-1.75-1,1.2,1.2,0,0,1-.4-1,1.81,1.81,0,0,1,.22-1,2,2,0,0,1,.67-.67,3.45,3.45,0,0,1,1.07-.43,5.37,5.37,0,0,1,3.63.39,11,11,0,0,1,2.22,1.44,1.15,1.15,0,0,0,1.83-.52l.84-2.51a1.15,1.15,0,0,0-.32-1.22,9.91,9.91,0,0,0-4.51-2.32,10.74,10.74,0,0,0-4.84,0,8.23,8.23,0,0,0-4,2.25A6.25,6.25,0,0,0,263.54,17a6.09,6.09,0,0,0,1,3.65A7.39,7.39,0,0,0,267,22.78,16.21,16.21,0,0,0,269.87,24c.92.3,1.79.61,2.58.94a5.74,5.74,0,0,1,1.71,1,1.46,1.46,0,0,1,.44,1.18,1.69,1.69,0,0,1-.23.93,2.73,2.73,0,0,1-.75.76,3.18,3.18,0,0,1-1.07.47,6,6,0,0,1-3.93-.4,10,10,0,0,1-2.39-1.5,1.15,1.15,0,0,0-1.76.32L263.24,30a1.15,1.15,0,0,0,.24,1.41A12.84,12.84,0,0,0,267,33.68a10.34,10.34,0,0,0,4.17.87,9.48,9.48,0,0,0,3-.5,9,9,0,0,0,2.68-1.44,7.35,7.35,0,0,0,2-2.35,6.8,6.8,0,0,0,.75-3.21,6.2,6.2,0,0,0-1-3.67A7.54,7.54,0,0,0,276.11,21.19Z"/><path class="cls-1" d="M299.7,12.55a8.68,8.68,0,0,0-6.87-2.71,8.22,8.22,0,0,0-4.17,1.06,9.28,9.28,0,0,0-1,.66V1.15A1.15,1.15,0,0,0,286.16.06q-.62.21-1.27.37t-1.44.41a1.15,1.15,0,0,0-.81,1.1V33.09a1.15,1.15,0,0,0,1.15,1.15l.2,0,2.74-.49a1.15,1.15,0,0,0,1-1.13V18.49l.06-.17.1-.25.07-.13a5.68,5.68,0,0,1,2.44-2.61,5.26,5.26,0,0,1,3.07-.67,3.87,3.87,0,0,1,2.5,1.31A5.06,5.06,0,0,1,297,19.5V33.09a1.15,1.15,0,0,0,1.35,1.13l2.73-.49a1.15,1.15,0,0,0,1-1.13V19.46A10.16,10.16,0,0,0,299.7,12.55Z"/></g></g></svg>